#!OML:ASF H:\Terrain\Patient Classification 1\Walking\steve\steve.ASF
:FULLY-SPECIFIED
:DEGREES
201
root 9.15148 15.9215 8.01385 6.27486 3.28818 4.46952
lowerback -0.132045 -0.646358 -5.07546
upperback -2.99585 -0.919169 0.907552
thorax -2.92407 -0.316568 3.80585
lowerneck -9.87942 -0.654474 -4.5198
upperneck 8.63726 -0.221834 -0.109971
head 4.20633 -0.265574 0.683182
rclavicle -1.15854e-014 3.18055e-015
rhumerus -81.0786 -27.4481 -34.9466
rradius 15.3557
rwrist 24.6531
rhand -12.7844 -40.7494
rfingers 7.12502
rthumb 13.3011 -70.3049
lclavicle -1.15854e-014 3.18055e-015
lhumerus -3.9133 -7.97108 84.0153
lradius 56.4805
lwrist 32.6344
lhand -26.7453 -16.6437
lfingers 7.12502
lthumb -0.174086 13.336
rfemur -43.9219 0.0087978 18.3555
rtibia 30.7322
rfoot -5.59055 4.12614
rtoes 0.924802
lfemur 24.6536 -0.374661 -27.3223
ltibia -9.22361e-014
lfoot 3.24238 -5.39175
ltoes -13.5874
202
root 9.1566 15.9097 8.2717 6.33696 3.10937 4.2203
lowerback -0.314651 -0.607466 -4.53717
upperback -3.03911 -0.847677 1.03799
thorax -2.87588 -0.293199 3.63415
lowerneck -9.96459 -0.572232 -4.44923
upperneck 8.67934 -0.065639 -0.585826
head 4.23063 -0.214517 0.535434
rclavicle -9.71871e-015 6.36111e-015
rhumerus -81.8524 -27.8439 -32.6284
rradius 14.9115
rwrist 26.8234
rhand -12.2255 -40.1804
rfingers 7.12502
rthumb 13.8397 -69.7
lclavicle -9.71871e-015 6.36111e-015
lhumerus -4.52736 -7.97888 84.0594
lradius 57.0472
lwrist 33.1704
lhand -26.8594 -17.1576
lfingers 7.12502
lthumb -0.284289 12.822
rfemur -44.0943 0.606157 18.3688
rtibia 32.1211
rfoot -4.11785 3.3558
rtoes 1.90039
lfemur 21.3008 -0.227291 -26.9482
ltibia 7.73536
lfoot 3.33952 -6.10117
ltoes -8.19325
203
root 9.16118 15.8801 8.5263 6.19804 2.87788 3.91665
lowerback -0.163597 -0.54994 -3.99981
upperback -3.12417 -0.766266 1.21683
thorax -3.05906 -0.257922 3.51784
lowerneck -9.93772 -0.465968 -4.44744
upperneck 8.70433 0.118014 -0.981474
head 4.23159 -0.147197 0.425428
rclavicle -1.24178e-014 4.77083e-015
rhumerus -81.8231 -27.7071 -32.207
rradius 14.75
rwrist 27.1137
rhand -12.2833 -40.2949
rfingers 7.12502
rthumb 13.784 -69.8182
lclavicle -1.24178e-014 4.77083e-015
lhumerus -5.84724 -7.25252 84.4909
lradius 57.9919
lwrist 32.9642
lhand -26.979 -17.5715
lfingers 7.12502
lthumb -0.39983 12.4079
rfemur -44.1258 1.19062 18.5459
rtibia 33.8872
rfoot -3.44502 2.63033
rtoes 3.65806
lfemur 19.3206 -0.0100941 -26.5074
ltibia 13.1009
lfoot 4.77846 -5.66543
ltoes 0.60825
204
root 9.15376 15.8732 8.73767 6.08562 2.59826 3.38129
lowerback 0.659724 -0.475135 -3.41784
upperback -3.38398 -0.67712 1.5134
thorax -3.80363 -0.204411 3.5082
lowerneck -9.69261 -0.318151 -4.51862
upperneck 8.17566 0.339577 -1.30304
head 4.46512 -0.0509834 0.393495
rclavicle 6.41702e-015 7.95139e-016
rhumerus -81.7192 -27.5588 -31.7869
rradius 14.6201
rwrist 27.801
rhand -12.484 -40.4292
rfingers 7.12502
rthumb 13.5906 -69.9656
lclavicle 6.41702e-015 7.95139e-016
lhumerus -7.26369 -6.72229 84.8064
lradius 58.8675
lwrist 32.8837
lhand -27.2636 -17.2625
lfingers 7.12502
lthumb -0.674721 12.7162
rfemur -44.2182 2.08254 18.9463
rtibia 35.7099
rfoot -3.81483 2.00152
rtoes 7.25612
lfemur 17.3447 -0.182729 -25.8637
ltibia 17.6793
lfoot 6.46642 -3.78997
ltoes 4.53423
205
root 9.1745 15.8658 9.0002 5.44722 2.49212 4.1609
lowerback 1.15055 -0.490051 -3.77466
upperback -3.21186 -0.728459 1.34964
thorax -3.89753 -0.222484 3.54621
lowerneck -9.52372 -0.180824 -4.67495
upperneck 7.94671 0.537674 -1.38631
head 4.34406 0.04318 0.405972
rclavicle -4.96962e-015 1.27222e-014
rhumerus -82.3308 -28.0882 -29.5571
rradius 14.434
rwrist 30.4712
rhand -12.5043 -40.0501
rfingers 7.12502
rthumb 13.571 -69.5878
lclavicle -4.96962e-015 1.27222e-014
lhumerus -8.34634 -6.3935 85.0386
lradius 59.2675
lwrist 32.9627
lhand -27.3958 -16.8787
lfingers 7.12502
lthumb -0.802342 13.0995
rfemur -43.5022 1.35417 18.4007
rtibia 37.5777
rfoot -4.05737 3.03041
rtoes 9.42746
lfemur 16.2006 -0.382371 -26.818
ltibia 22.2262
lfoot 8.31551 -1.65264
ltoes 7.16701
206
root 9.17915 15.8618 9.2464 5.19272 2.18607 4.03991
lowerback 1.22981 -0.444134 -3.44266
upperback -3.02991 -0.654316 1.44741
thorax -3.76067 -0.200079 3.45647
lowerneck -9.85428 -0.0872796 -4.64994
upperneck 7.90705 0.695725 -1.55952
head 4.39438 0.111813 0.354659
rclavicle -1.49026e-014 6.36111e-015
rhumerus -81.8742 -28.5345 -29.3231
rradius 14.4248
rwrist 31.4174
rhand -12.5293 -39.8072
rfingers 7.12502
rthumb 13.5469 -69.3465
lclavicle -1.49026e-014 6.36111e-015
lhumerus -9.23282 -5.98367 85.2111
lradius 59.5184
lwrist 32.9031
lhand -27.3867 -17.5271
lfingers 7.12502
lthumb -0.793572 12.4511
rfemur -43.2424 1.20632 18.7938
rtibia 39.2227
rfoot -4.40513 3.99895
rtoes 7.99896
lfemur 14.4821 0.0718039 -26.595
ltibia 26.5743
lfoot 11.1882 0.100918
ltoes 6.63321
207
root 9.17568 15.8745 9.48064 5.15571 1.76041 3.06893
lowerback 1.15885 -0.369958 -2.44366
upperback -2.91449 -0.509711 1.82417
thorax -3.61468 -0.155635 3.27574
lowerneck -10.2411 0.0382717 -4.41463
upperneck 7.98511 0.899177 -1.98538
head 4.50026 0.192552 0.18336
rclavicle 1.10139e-014 -2.62396e-014
rhumerus -80.532 -28.6478 -30.7385
rradius 14.504
rwrist 30.9838
rhand -12.4112 -40.6231
rfingers 7.12502
rthumb 13.6607 -70.1548
lclavicle 1.10139e-014 -2.62396e-014
lhumerus -10.0881 -5.68936 85.3048
lradius 59.6585
lwrist 32.9419
lhand -27.5768 -18.1691
lfingers 7.12502
lthumb -0.977189 11.8084
rfemur -43.1751 1.48162 20.0987
rtibia 40.7409
rfoot -4.60573 4.71892
rtoes 5.59739
lfemur 12.5754 0.689683 -25.3256
ltibia 30.4471
lfoot 14.2871 0.980048
ltoes 2.92947
208
root 9.18161 15.8891 9.71083 5.03615 1.45369 2.71442
lowerback 1.28065 -0.308252 -2.02647
upperback -2.84913 -0.410423 2.01271
thorax -3.62389 -0.115734 3.23239
lowerneck -10.21 0.151528 -4.1351
upperneck 7.85847 1.05101 -2.44351
head 4.44892 0.255109 -0.0118872
rclavicle -1.4415e-014 2.46493e-014
rhumerus -79.7348 -28.972 -31.1655
rradius 14.4872
rwrist 31.2379
rhand -12.4182 -41.2643
rfingers 7.12502
rthumb 13.654 -70.7965
lclavicle -1.4415e-014 2.46493e-014
lhumerus -10.9595 -5.5003 85.4883
lradius 59.5442
lwrist 33.113
lhand -27.8369 -18.1115
lfingers 7.12502
lthumb -1.22842 11.8647
rfemur -42.7713 1.47108 20.7161
rtibia 41.7799
rfoot -4.56544 5.23264
rtoes 5.76789
lfemur 10.7012 0.814651 -24.9085
ltibia 34.5046
lfoot 16.1302 1.51914
ltoes -0.0862019
209
root 9.1847 15.9016 9.93645 4.90771 1.19371 2.85192
lowerback 1.5971 -0.186842 -2.08436
upperback -2.85729 -0.254976 1.98285
thorax -3.82275 -0.0337553 3.23
lowerneck -10.1653 0.119872 -4.00064
upperneck 7.72642 0.998151 -2.60645
head 4.39359 0.22829 -0.0948642
rclavicle -6.72141e-015 4.77083e-015
rhumerus -79.3885 -29.5877 -31.1329
rradius 14.5212
rwrist 31.6599
rhand -12.2014 -41.0299
rfingers 7.12502
rthumb 13.8629 -70.5478
lclavicle -6.72141e-015 4.77083e-015
lhumerus -12.0022 -5.50118 85.7522
lradius 59.3936
lwrist 33.2058
lhand -27.8763 -17.6304
lfingers 7.12502
lthumb -1.26639 12.3456
rfemur -42.1959 1.32654 20.7887
rtibia 42.4956
rfoot -4.91812 5.75939
rtoes 7.31373
lfemur 8.9408 0.758024 -25.0855
ltibia 38.2847
lfoot 17.2622 3.40767
ltoes 0.504775
210
root 9.17931 15.926 10.1518 4.77058 0.886021 2.40183
lowerback 2.12079 -0.0268145 -1.63705
upperback -2.9366 -0.0238169 2.11138
thorax -4.21808 0.076709 3.10317
lowerneck -10.2649 0.0945617 -4.01046
upperneck 7.83048 0.967909 -2.53505
head 4.45163 0.213505 -0.0709778
rclavicle -4.65902e-015 1.66979e-014
rhumerus -79.3692 -30.4747 -30.3569
rradius 14.5156
rwrist 32.8936
rhand -11.7635 -40.681
rfingers 7.12502
rthumb 14.2849 -70.1697
lclavicle -4.65902e-015 1.66979e-014
lhumerus -13.1991 -5.50874 86.0817
lradius 59.2278
lwrist 33.2376
lhand -27.8785 -16.822
lfingers 7.12502
lthumb -1.2686 13.1539
rfemur -41.3984 1.39343 21.526
rtibia 42.8213
rfoot -5.49623 6.12787
rtoes 8.59739
lfemur 7.05599 0.938967 -24.484
ltibia 42.082
lfoot 18.2604 6.59348
ltoes 4.27917
211
root 9.1821 15.9639 10.4081 4.35756 0.646679 1.676
lowerback 2.13561 0.0764076 -0.856497
upperback -2.74178 0.152902 2.35229
thorax -4.03301 0.14056 2.90166
lowerneck -10.2343 0.0893413 -4.2263
upperneck 7.8816 0.972447 -2.33831
head 4.46232 0.218371 0.0347259
rclavicle 9.7156e-015 -1.98785e-014
rhumerus -78.8185 -31.2093 -30.2778
rradius 14.4019
rwrist 33.6421
rhand -12.1149 -40.2371
rfingers 7.12502
rthumb 13.9463 -69.7493
lclavicle 9.7156e-015 -1.98785e-014
lhumerus -14.1516 -5.30537 86.5171
lradius 58.6388
lwrist 33.1136
lhand -27.9208 -16.1386
lfingers 7.12502
lthumb -1.30945 13.8372
rfemur -40.001 1.22572 22.5597
rtibia 43.0437
rfoot -6.13103 6.78224
rtoes 11.2978
lfemur 5.84715 1.31223 -23.5559
ltibia 45.444
lfoot 18.7011 9.65439
ltoes 5.64811
212
root 9.16311 15.9958 10.5968 4.58176 0.00826253 0.272179
lowerback 2.26509 0.373508 0.241825
upperback -2.72199 0.613801 2.81771
thorax -4.10607 0.345165 2.73938
lowerneck -10.4743 -0.0777654 -4.5091
upperneck 7.91517 0.784122 -2.13219
head 4.52502 0.124878 0.14285
rclavicle -4.43732e-015 1.98785e-014
rhumerus -77.7428 -31.9974 -31.0576
rradius 14.3158
rwrist 33.821
rhand -12.269 -39.6617
rfingers 7.12502
rthumb 13.7978 -69.1842
lclavicle -4.43732e-015 1.98785e-014
lhumerus -14.5939 -5.06864 87.0242
lradius 57.5435
lwrist 32.7909
lhand -27.8255 -16.0906
lfingers 7.12502
lthumb -1.21739 13.8857
rfemur -39.4862 2.35674 24.1425
rtibia 43.0518
rfoot -6.84489 6.46686
rtoes 10.1518
lfemur 3.39077 2.23462 -21.7538
ltibia 48.9768
lfoot 18.464 12.0946
ltoes 5.11615
213
root 9.17302 16.0429 10.8378 4.59171 0.330055 0.0492389
lowerback 1.74373 0.344891 0.741275
upperback -2.43955 0.574723 2.80371
thorax -3.51034 0.307409 2.44612
lowerneck -10.4485 -0.0551079 -4.58529
upperneck 7.50908 0.783248 -1.86165
head 4.37029 0.146643 0.248496
rclavicle -1.27968e-015 -2.38542e-015
rhumerus -76.4769 -32.9249 -32.2025
rradius 14.2927
rwrist 33.8542
rhand -12.0111 -39.2294
rfingers 7.12502
rthumb 14.0463 -68.7347
lclavicle -1.27968e-015 -2.38542e-015
lhumerus -14.8542 -5.06211 87.4733
lradius 56.2514
lwrist 32.7029
lhand -27.9211 -16.5093
lfingers 7.12502
lthumb -1.30972 13.4664
rfemur -38.3801 1.62989 24.5322
rtibia 43.2549
rfoot -8.08433 6.99647
rtoes 6.34694
lfemur 1.75765 2.22035 -21.4351
ltibia 51.9287
lfoot 16.5665 13.9359
ltoes 7.81158
